<?xml version="1.0" standalone="no"?>
<!DOCTYPE svg PUBLIC "-//W3C//DTD SVG 20010904//EN"
 "http://www.w3.org/TR/2001/REC-SVG-20010904/DTD/svg10.dtd">
<svg version="1.0" xmlns="http://www.w3.org/2000/svg"
 width="200.000000pt" height="200.000000pt" viewBox="0 0 200.000000 200.000000"
 preserveAspectRatio="xMidYMid meet">
<metadata>
Created by potrace 1.10, written by Peter Selinger 2001-2011
</metadata>
<g transform="translate(0.000000,200.000000) scale(0.100000,-0.100000)"
fill="#000000" stroke="none">
<path d="M1398 1805 c-32 -30 -45 -35 -85 -35 -27 -1 -66 -8 -88 -16 -22 -8
-61 -21 -87 -28 -96 -26 -156 -77 -587 -489 -234 -225 -441 -424 -458 -444
-45 -50 -56 -94 -36 -145 13 -34 58 -74 272 -245 141 -113 275 -215 299 -225
49 -22 87 -18 128 15 18 14 39 20 60 18 36 -3 39 -1 467 412 154 148 211 197
224 193 24 -8 47 9 193 134 83 71 129 118 141 145 11 22 37 62 58 89 94 118
69 206 -81 291 l-39 22 42 7 c44 7 109 60 109 89 0 9 -88 56 -241 128 -133 63
-244 115 -248 116 -3 1 -23 -13 -43 -32z m279 -101 c125 -59 230 -108 232
-110 8 -7 -41 -52 -67 -63 -15 -5 -53 -15 -85 -21 -63 -13 -121 -58 -133 -105
-3 -14 -10 -25 -15 -25 -9 0 -448 235 -458 246 -11 11 41 92 66 103 14 7 57
16 96 21 55 7 76 14 96 34 14 14 29 26 33 26 4 0 110 -48 235 -106z m-532 -26
c-10 -24 -20 -32 -34 -31 -12 2 -21 -1 -21 -6 0 -10 553 -311 573 -311 7 0 28
-11 47 -25 19 -14 39 -25 45 -25 6 0 34 16 61 35 71 51 114 44 114 -17 0 -34
-17 -69 -58 -121 l-30 -37 -6 25 c-8 31 -60 65 -99 65 -66 0 -100 -29 -515
-443 -416 -415 -452 -457 -452 -524 0 -52 -62 -89 -122 -73 -33 10 -496 371
-550 430 -35 38 -37 88 -6 138 l22 36 7 -33 c4 -18 11 -37 15 -41 5 -5 107
-85 227 -178 128 -99 231 -172 248 -176 17 -3 45 0 63 8 29 12 763 713 849
809 31 36 35 77 10 99 -26 22 -510 289 -550 303 l-33 11 44 32 c41 30 142 82
158 82 4 0 1 -15 -7 -32z m105 -250 c140 -78 263 -148 273 -156 9 -8 17 -24
17 -34 0 -21 -413 -433 -457 -456 -18 -10 -32 -11 -58 -2 -38 13 -483 303
-502 328 -30 37 -16 56 197 260 185 179 213 202 242 202 23 0 105 -40 288
-142z m539 41 c74 -44 111 -72 126 -96 16 -24 16 -24 -4 -14 -24 13 -58 2
-105 -34 -34 -26 -70 -33 -81 -15 -4 6 -25 20 -48 31 -23 12 -43 23 -45 24
-10 9 44 89 71 105 40 25 42 25 86 -1z m6 -284 c33 -32 33 -85 3 -119 -13 -13
-76 -70 -142 -125 -92 -78 -125 -101 -148 -101 -25 0 -75 -44 -336 -296 -169
-163 -317 -301 -329 -306 -57 -27 -71 31 -24 103 36 56 815 833 856 853 45 24
92 20 120 -9z m-1295 -60 c0 -21 27 -43 183 -147 239 -160 336 -218 362 -218
16 0 -19 -39 -139 -158 -89 -87 -178 -173 -199 -190 -47 -40 -90 -42 -143 -6
-62 43 -397 305 -416 327 -38 41 -26 59 148 229 92 90 172 168 178 175 17 19
26 15 26 -12z"/>
<path d="M732 374 c-56 -44 -120 -47 -176 -9 -41 27 -46 29 -46 16 0 -15 102
-61 135 -61 31 0 108 42 134 73 22 27 -1 18 -47 -19z"/>
<path d="M897 1453 c-154 -144 -237 -228 -237 -239 0 -18 29 -39 256 -185 120
-77 226 -139 235 -137 27 5 339 314 339 336 0 15 -53 50 -240 156 -132 75
-250 136 -261 136 -12 0 -52 -29 -92 -67z m339 -85 c129 -72 234 -137 234
-143 0 -11 -313 -315 -324 -315 -10 0 -443 280 -455 294 -9 11 18 42 136 155
81 77 154 141 162 141 7 0 119 -59 247 -132z"/>
<path d="M552 1148 c-20 -20 -14 -36 25 -63 46 -31 69 -32 84 -3 10 19 8 25
-22 50 -35 30 -67 36 -87 16z m69 -25 c32 -19 36 -31 14 -39 -17 -7 -78 34
-70 47 9 13 23 11 56 -8z"/>
<path d="M682 1068 c-21 -21 -13 -46 23 -68 74 -45 122 11 50 58 -39 25 -56
27 -73 10z m59 -25 c32 -19 39 -43 12 -43 -26 1 -67 35 -59 49 9 15 13 14 47
-6z"/>
<path d="M807 982 c-23 -26 -22 -28 25 -62 47 -35 51 -35 72 -14 25 24 19 41
-21 69 -45 30 -55 31 -76 7z m78 -36 c17 -13 18 -17 6 -25 -20 -13 -84 29 -69
46 11 13 25 8 63 -21z"/>
<path d="M932 898 c-20 -20 -13 -37 27 -64 42 -28 74 -26 86 4 4 12 -3 25 -26
45 -35 29 -67 35 -87 15z m69 -25 c32 -19 36 -31 14 -39 -15 -6 -75 31 -75 47
0 14 29 11 61 -8z"/>
<path d="M1678 1174 c-16 -8 -28 -19 -28 -25 0 -5 11 -2 24 6 15 10 40 15 63
13 33 -3 39 -7 50 -38 11 -33 12 -34 12 -7 2 57 -62 84 -121 51z"/>
<path d="M462 1054 c-31 -21 -28 -39 11 -68 40 -31 58 -32 80 -8 25 27 21 36
-23 66 -47 31 -40 30 -68 10z m71 -36 c17 -13 17 -15 4 -27 -16 -12 -25 -10
-66 18 -12 8 -12 12 -2 25 13 16 25 13 64 -16z"/>
<path d="M365 960 c-17 -18 -17 -21 -2 -37 9 -10 29 -26 46 -36 29 -17 30 -17
58 8 l28 25 -35 30 c-41 35 -70 38 -95 10z m75 -20 c22 -17 23 -21 10 -34 -14
-14 -18 -13 -44 8 -17 13 -26 28 -22 34 10 17 27 14 56 -8z"/>
<path d="M571 956 l-22 -23 39 -32 c46 -36 62 -38 85 -13 24 26 21 38 -16 66
-42 32 -57 32 -86 2z m71 -17 c26 -19 28 -23 15 -37 -14 -13 -19 -12 -46 7
-39 28 -39 42 -3 50 2 1 17 -9 34 -20z"/>
<path d="M287 882 c-25 -27 -21 -36 24 -68 43 -29 61 -27 83 10 9 14 5 22 -24
46 -41 34 -61 37 -83 12z m65 -23 c26 -19 28 -23 15 -36 -13 -13 -18 -12 -46
8 -23 17 -28 26 -20 36 15 17 16 17 51 -8z"/>
<path d="M490 875 c-21 -23 -22 -26 -7 -42 8 -10 29 -26 45 -35 29 -17 31 -17
56 3 14 11 26 25 26 30 0 9 -78 69 -90 69 -3 0 -17 -11 -30 -25z m87 -49 c-7
-20 -32 -17 -61 5 -27 21 -27 23 -11 35 15 11 22 10 47 -7 16 -12 27 -26 25
-33z"/>
<path d="M689 874 l-24 -26 30 -24 c42 -34 72 -40 95 -19 29 26 25 39 -20 69
-49 32 -51 32 -81 0z m69 -17 c24 -18 29 -26 20 -35 -16 -16 -29 -15 -58 7
-20 16 -22 21 -11 35 16 20 11 20 49 -7z"/>
<path d="M207 802 c-25 -27 -21 -44 16 -69 41 -28 59 -29 83 -2 19 21 19 21
-21 55 -46 39 -56 41 -78 16z m80 -56 c-6 -18 -31 -17 -56 4 -19 16 -21 23
-11 35 11 13 16 12 42 -6 16 -12 27 -26 25 -33z"/>
<path d="M831 794 c-17 -14 -31 -32 -31 -39 0 -7 23 -28 51 -45 l50 -33 27 20
c37 27 39 56 8 77 -80 51 -71 49 -105 20z m75 -25 c39 -24 41 -30 16 -52 -17
-15 -21 -15 -58 10 -21 14 -41 28 -43 29 -8 7 22 34 37 34 8 0 30 -9 48 -21z"/>
<path d="M400 788 l-23 -22 39 -33 c45 -37 64 -41 87 -15 24 26 21 36 -17 66
-42 32 -55 32 -86 4z m72 -19 c26 -19 28 -23 15 -37 -14 -13 -19 -12 -46 7
-31 23 -37 32 -24 44 11 11 23 8 55 -14z"/>
<path d="M607 792 c-24 -26 -21 -36 17 -66 41 -31 57 -32 79 -8 24 26 21 36
-17 66 -41 31 -57 32 -79 8z m65 -23 c26 -19 28 -23 15 -37 -14 -13 -19 -12
-47 8 -25 17 -28 25 -19 36 15 18 15 18 51 -7z"/>
<path d="M323 713 c-32 -22 -29 -37 17 -73 39 -31 41 -31 65 -16 35 23 31 49
-13 80 -44 30 -40 30 -69 9z m62 -28 c26 -22 28 -26 15 -39 -13 -14 -19 -12
-48 10 -26 21 -30 29 -21 40 15 18 19 18 54 -11z"/>
<path d="M514 699 c-19 -21 -19 -21 20 -55 46 -40 55 -41 84 -14 30 28 28 33
-16 64 -46 32 -63 33 -88 5z m79 -23 c25 -20 26 -24 13 -36 -14 -10 -22 -9
-50 11 -26 18 -32 27 -24 36 15 18 29 16 61 -11z"/>
<path d="M730 695 c-30 -32 -23 -46 42 -83 l47 -27 25 24 c36 34 32 52 -18 84
-53 33 -66 34 -96 2z m85 -17 c40 -27 41 -29 16 -52 -18 -17 -21 -16 -60 10
-45 30 -49 38 -23 53 24 14 28 14 67 -11z"/>
<path d="M442 624 c-32 -22 -27 -48 17 -78 38 -27 40 -27 65 -11 35 23 33 38
-13 74 -45 36 -41 35 -69 15z m83 -53 c2 -5 -2 -14 -10 -21 -13 -11 -20 -9
-43 11 -15 13 -29 25 -31 26 -2 2 2 9 9 18 11 13 16 12 41 -6 16 -11 31 -24
34 -28z"/>
<path d="M602 567 c-34 -34 -62 -68 -62 -74 0 -10 86 -73 99 -73 3 0 37 28 74
63 47 42 67 67 62 77 -7 18 -80 70 -98 70 -7 0 -41 -28 -75 -63z m120 16 l41
-28 -62 -57 -63 -57 -39 26 c-21 14 -39 28 -39 32 0 5 111 109 118 111 1 0 21
-12 44 -27z"/>
</g>
</svg>
